<svg width="24" height="24" viewBox="0 0 24 24" fill="none" xmlns="http://www.w3.org/2000/svg">
<path d="M11.9388 8.18457L11.2823 10.8131C12.0253 10.9979 14.3177 11.7541 14.6886 10.2658C15.075 8.71627 12.6806 8.37061 11.9388 8.18457ZM10.9523 12.1405L10.2285 15.0391C11.1203 15.2611 13.8736 16.1445 14.2805 14.5098C14.7066 12.8031 11.8452 12.3626 10.9523 12.1405Z" fill="#FF8F00"/>
<path d="M14.9002 0.358925C8.47057 -1.24338 1.96172 2.66937 0.359409 9.099C-1.2441 15.5262 2.66865 22.0375 9.09349 23.641C15.5231 25.2433 22.0356 21.3318 23.6367 14.9021C25.2402 8.47368 21.3274 1.96243 14.9002 0.358925ZM17.2899 10.2908C17.1158 11.4599 16.4665 12.0252 15.6071 12.2244C16.7894 12.8389 17.3895 13.7823 16.8182 15.4182C16.1076 17.4478 14.4201 17.6194 12.1733 17.1946L11.6284 19.379L10.3129 19.0513L10.8494 16.8981C10.4984 16.8104 10.1484 16.7192 9.79922 16.6245L9.26032 18.7897L7.94607 18.4596L8.49097 16.2716C8.18251 16.1924 7.87045 16.1084 7.55239 16.0291L5.83726 15.6031L6.49259 14.0956C6.49259 14.0956 7.46237 14.3536 7.44917 14.3344C7.82244 14.4268 7.98688 14.1844 8.05169 14.0212L8.91465 10.5705L9.05268 10.6053C9.00815 10.5873 8.96244 10.5725 8.91585 10.5609L9.53037 8.09681C9.54597 7.81596 9.45116 7.46309 8.91705 7.32986C8.93866 7.31666 7.96047 7.09222 7.96047 7.09222L8.30974 5.68555L10.1269 6.13924L10.1257 6.14524C10.3981 6.21365 10.679 6.27846 10.9658 6.34327L11.5048 4.18046L12.8214 4.50812L12.2933 6.62773C12.6462 6.70814 13.0026 6.78976 13.3483 6.87618L13.874 4.76977L15.1907 5.09744L14.6518 7.26025C16.3129 7.83516 17.5275 8.69453 17.2899 10.2908Z" fill="#FF8F00"/>
</svg>
