<svg width="67" height="92" viewBox="0 0 67 92" fill="none" xmlns="http://www.w3.org/2000/svg">
<g clip-path="url(#clip0_571_3205)">
<path d="M0.363281 45.9189C0.363281 31.1665 0.363281 16.3938 0.363281 1.64141C0.363281 0.162115 0.50583 0.0202643 1.99241 0.0202643C17.1229 0.0202643 32.2738 0.0202643 47.4043 0C48.2392 0 48.8705 0.222907 49.4815 0.830837C54.8372 6.09956 60.2337 11.3278 65.5894 16.5965C65.9967 17.0018 66.3633 17.6705 66.3633 18.2176C66.404 24.7427 66.3633 31.2476 66.3429 37.7727C66.2818 55.3418 66.2004 72.8907 66.1393 90.4599C66.1393 91.8176 65.9764 91.9797 64.6323 91.9797C43.7184 91.9797 22.8249 91.9797 1.91095 91.9797C0.465102 91.9797 0.404009 91.8987 0.404009 90.3789C0.363281 75.5656 0.363281 60.7524 0.363281 45.9189ZM64.4491 18.6229C64.0621 18.6229 63.6956 18.6229 63.329 18.6229C58.5435 18.6229 53.7579 18.6229 48.9724 18.6229C47.384 18.6229 47.2414 18.5013 47.2618 16.8802C47.3025 12.1789 47.3229 7.4978 47.4043 2.79648C47.4247 1.9859 47.1599 1.763 46.3657 1.763C31.9683 1.82379 17.5709 1.82379 3.19389 1.78326C2.31823 1.78326 2.13496 2.06696 2.13496 2.87753C2.15532 31.6123 2.15532 60.3471 2.15532 89.1022C2.15532 89.4467 2.19605 89.8114 2.19605 90.1357C22.9878 90.1357 43.6166 90.1357 64.4491 90.1357C64.4491 66.3048 64.4491 42.5348 64.4491 18.6229ZM49.1149 16.7789C53.7579 16.7789 58.3602 16.7789 63.2068 16.7789C58.462 12.1991 53.9005 7.76123 49.1149 3.14097C49.1149 7.86256 49.1149 12.2599 49.1149 16.7789Z" fill="#6E97B5"/>
<path d="M64.4489 18.6229C64.4489 42.5348 64.4489 66.2845 64.4489 90.1356C43.6368 90.1356 22.9876 90.1356 2.19586 90.1356C2.17549 89.8114 2.15513 89.4467 2.15513 89.1022C2.15513 60.3674 2.15513 31.6325 2.13477 2.87748C2.13477 2.0669 2.33841 1.7832 3.1937 1.7832C17.5911 1.80347 31.9682 1.80347 46.3656 1.7832C47.1598 1.7832 47.4245 2.00611 47.4041 2.81668C47.3227 7.51801 47.3023 12.1991 47.2616 16.9004C47.2412 18.5013 47.3838 18.6431 48.9722 18.6431C53.7577 18.6431 58.5433 18.6431 63.3288 18.6431C63.6954 18.6229 64.062 18.6229 64.4489 18.6229ZM30.9907 71.7559C23.8022 71.7559 16.5933 71.7559 9.40475 71.7559C9.14001 71.7559 8.81419 71.6749 8.61055 71.7964C8.30508 71.9788 7.83671 72.303 7.85707 72.5462C7.87744 72.8704 8.24399 73.2555 8.54945 73.4581C8.75309 73.6 9.14001 73.5189 9.44547 73.5189C23.7411 73.5189 38.0163 73.5189 52.3119 73.5189C52.6173 73.5189 52.9839 73.6 53.2079 73.4581C53.5337 73.2352 53.9003 72.8704 53.9206 72.5462C53.941 72.303 53.493 71.9586 53.1672 71.7762C52.9635 71.6546 52.6377 71.7356 52.373 71.7356C45.2455 71.7559 38.1181 71.7559 30.9907 71.7559ZM30.8278 80.0643C37.9959 80.0643 45.1437 80.0643 52.3119 80.0643C52.6173 80.0643 52.9839 80.1453 53.2079 80.0238C53.5134 79.8616 53.9003 79.5171 53.9003 79.2334C53.9003 78.9497 53.5337 78.585 53.2486 78.3823C53.0246 78.2405 52.6581 78.3215 52.3526 78.3215C38.0367 78.3215 23.7207 78.3215 9.38438 78.3215C9.07892 78.3215 8.71237 78.2405 8.48836 78.3823C8.1829 78.5647 7.83671 78.9295 7.83671 79.2132C7.83671 79.4969 8.22363 79.8414 8.52909 80.0035C8.77346 80.1251 9.11965 80.044 9.42511 80.044C16.5729 80.0643 23.7003 80.0643 30.8278 80.0643ZM30.9907 38.644C27.5695 38.644 24.1483 38.644 20.7068 38.644C16.7765 38.644 12.8463 38.644 8.89564 38.644C8.28472 38.644 7.69416 38.8061 7.83671 39.4951C7.8978 39.8396 8.468 40.103 8.83455 40.3665C8.9771 40.4678 9.24183 40.3867 9.42511 40.3867C23.7003 40.3867 37.9756 40.3867 52.2711 40.3867C52.6377 40.3867 53.0653 40.4273 53.3708 40.2651C53.6355 40.1233 53.9206 39.6978 53.9003 39.4343C53.8799 39.1709 53.5337 38.8466 53.2486 38.6845C53.045 38.5629 52.7192 38.644 52.4544 38.644C45.3066 38.644 38.1385 38.644 30.9907 38.644ZM30.7667 53.5788C37.8941 53.5788 45.0215 53.5788 52.1286 53.5585C52.8413 53.5585 53.9206 53.8625 53.9206 52.6669C53.9206 51.5321 52.8821 51.8361 52.1897 51.8361C37.9348 51.8158 23.7003 51.8361 9.44547 51.8361C9.18074 51.8361 8.85491 51.755 8.65127 51.8766C8.32545 52.0793 7.85707 52.4035 7.83671 52.6669C7.83671 52.9506 8.26436 53.3559 8.59018 53.5383C8.85491 53.6801 9.2622 53.5991 9.58802 53.5991C16.6544 53.5788 23.7207 53.5788 30.7667 53.5788ZM30.8278 66.8925C37.9756 66.8925 45.1437 66.8925 52.2915 66.8925C52.9635 66.8925 53.9206 67.1154 53.9206 66.0616C53.941 64.9066 52.9228 65.17 52.2304 65.17C37.9756 65.1497 23.7411 65.17 9.4862 65.17C9.18074 65.17 8.81419 65.0889 8.59018 65.2105C8.26436 65.3929 7.81635 65.7779 7.83671 66.0414C7.85707 66.3251 8.30508 66.6898 8.63091 66.8519C8.89564 66.9938 9.30292 66.8925 9.62875 66.8925C16.7155 66.8925 23.7614 66.8925 30.8278 66.8925ZM21.9898 46.9726C26.368 46.9726 30.7463 46.9726 35.1246 46.9726C35.7151 46.9726 36.265 46.8713 36.2853 46.1621C36.3261 45.392 35.7762 45.2299 35.1246 45.2096C34.9617 45.2096 34.7784 45.2096 34.6155 45.2096C26.2051 45.2096 17.7947 45.2096 9.38438 45.2096C9.07892 45.2096 8.71237 45.1286 8.48836 45.2907C8.20326 45.4933 7.83671 45.8784 7.83671 46.1621C7.85707 46.4458 8.24399 46.77 8.56982 46.9524C8.81419 47.074 9.16038 46.9929 9.46584 46.9929C13.6405 46.9726 17.8151 46.9726 21.9898 46.9726ZM22.0305 60.3066C26.2255 60.3066 30.4408 60.3066 34.6359 60.3066C34.9413 60.3066 35.3079 60.3876 35.5319 60.2458C35.8373 60.0634 36.2243 59.7189 36.2243 59.4352C36.2243 59.1515 35.8373 58.807 35.5522 58.6044C35.369 58.4828 35.0228 58.5436 34.758 58.5436C26.2866 58.5436 17.7947 58.5436 9.32329 58.5436C8.99746 58.5436 8.61055 58.5233 8.32545 58.6652C8.08108 58.807 7.79598 59.1718 7.81635 59.4149C7.85707 59.7189 8.14217 60.0634 8.4069 60.2255C8.67164 60.3674 9.05856 60.3066 9.40475 60.3066C13.6201 60.3066 17.8355 60.3066 22.0305 60.3066ZM19.9737 21.1356C23.4967 21.1356 27.0197 21.1356 30.5427 21.1356C30.7463 21.1356 30.9499 21.1356 31.1536 21.1356C31.7645 21.1356 32.2329 20.8519 32.1107 20.2643C32.0496 19.94 31.5609 19.6563 31.1943 19.4334C31.0314 19.3321 30.7259 19.4132 30.5019 19.4132C23.456 19.4132 16.41 19.4132 9.36402 19.4132C9.22147 19.4132 9.09928 19.4132 8.95674 19.4132C8.34581 19.3929 7.83671 19.555 7.81635 20.2643C7.79598 21.0343 8.36618 21.1762 8.99746 21.1559C9.2622 21.1559 9.54729 21.1559 9.81203 21.1559C13.1925 21.1559 16.5933 21.1559 19.9737 21.1356ZM18.1002 13.8405C21.0123 13.8405 23.9243 13.8405 26.8364 13.8405C27.1011 13.8405 27.4473 13.9215 27.6306 13.7999C27.9564 13.5973 28.4044 13.2325 28.3841 12.9488C28.3841 12.6651 27.9157 12.3409 27.5899 12.118C27.427 12.0167 27.1215 12.0775 26.8975 12.0775C21.0326 12.0775 15.1678 12.0775 9.30292 12.0775C8.99746 12.0775 8.63091 12.0167 8.4069 12.1585C8.14217 12.3409 7.81635 12.6854 7.83671 12.9691C7.83671 13.2325 8.16254 13.5973 8.44763 13.7392C8.71237 13.881 9.09928 13.8202 9.44547 13.8202C12.3372 13.8405 15.2085 13.8405 18.1002 13.8405Z" fill="white"/>
<path d="M49.1152 16.7788C49.1152 12.2801 49.1152 7.86245 49.1152 3.14087C53.9008 7.7814 58.4827 12.199 63.2072 16.7788C58.3809 16.7788 53.7582 16.7788 49.1152 16.7788Z" fill="white"/>
<path d="M30.9917 71.756C38.1191 71.756 45.2465 71.756 52.3739 71.756C52.6387 71.756 52.9645 71.6749 53.1681 71.7965C53.4736 71.9789 53.942 72.3234 53.9216 72.5665C53.8809 72.8908 53.5143 73.2555 53.2089 73.4784C52.9849 73.6203 52.6183 73.5392 52.3129 73.5392C38.0173 73.5392 23.742 73.5392 9.44646 73.5392C9.141 73.5392 8.75408 73.6203 8.55044 73.4784C8.24498 73.2555 7.87843 72.8908 7.85806 72.5665C7.8377 72.3234 8.30607 71.9991 8.61154 71.8168C8.81518 71.6952 9.141 71.7762 9.40573 71.7762C16.5943 71.756 23.8031 71.756 30.9917 71.756Z" fill="#6E97B5"/>
<path d="M30.8281 80.0644C23.7007 80.0644 16.5732 80.0644 9.44582 80.0644C9.14036 80.0644 8.77381 80.1454 8.5498 80.0238C8.24434 79.8617 7.85742 79.5172 7.85742 79.2335C7.85742 78.9498 8.22398 78.5851 8.50907 78.4027C8.73308 78.2608 9.09963 78.3419 9.40509 78.3419C23.721 78.3419 38.037 78.3419 52.3733 78.3419C52.6788 78.3419 53.0453 78.2608 53.2693 78.4027C53.5544 78.5851 53.921 78.9498 53.921 79.2538C53.921 79.5375 53.5341 79.882 53.2286 80.0441C52.9842 80.1657 52.638 80.0846 52.3326 80.0846C45.1441 80.0644 37.9963 80.0644 30.8281 80.0644Z" fill="#6E97B5"/>
<path d="M30.9899 38.6441C38.1377 38.6441 45.3059 38.6441 52.4537 38.6441C52.7184 38.6441 53.0442 38.5631 53.2479 38.6847C53.533 38.8468 53.8791 39.1508 53.8995 39.4345C53.9199 39.7182 53.6348 40.1234 53.37 40.2653C53.0646 40.4274 52.6573 40.3869 52.2704 40.3869C37.9952 40.3869 23.7199 40.3869 9.42435 40.3869C9.22071 40.3869 8.97634 40.4679 8.83379 40.3666C8.46723 40.1234 7.89704 39.8397 7.83595 39.4952C7.6934 38.786 8.28396 38.6441 8.89488 38.6441C12.8251 38.6441 16.7554 38.6441 20.706 38.6441C24.1476 38.6441 27.5687 38.6441 30.9899 38.6441Z" fill="#6E97B5"/>
<path d="M30.767 53.5788C23.721 53.5788 16.6547 53.5788 9.60873 53.5788C9.26254 53.5788 8.87563 53.6801 8.61089 53.518C8.28507 53.3356 7.85742 52.9506 7.85742 52.6466C7.85742 52.3629 8.3258 52.0387 8.67199 51.8563C8.87563 51.7347 9.20145 51.8158 9.46618 51.8158C23.721 51.8158 37.9555 51.8158 52.2104 51.8158C52.9028 51.8158 53.9413 51.5118 53.9413 52.6466C53.9413 53.8422 52.8824 53.5383 52.1493 53.5383C45.0219 53.5788 37.8944 53.5788 30.767 53.5788Z" fill="#6E97B5"/>
<path d="M30.8279 66.8926C23.782 66.8926 16.7156 66.8926 9.66966 66.8926C9.32347 66.8926 8.93656 66.9939 8.67182 66.852C8.32563 66.6899 7.89799 66.3251 7.87762 66.0414C7.85726 65.778 8.30527 65.393 8.63109 65.2106C8.8551 65.0687 9.22165 65.1701 9.52711 65.1701C23.782 65.1701 38.0165 65.1701 52.2713 65.1701C52.9637 65.1701 53.9615 64.9066 53.9615 66.0617C53.9412 67.1155 53.0044 66.8926 52.3324 66.8926C45.1439 66.8926 37.9757 66.8926 30.8279 66.8926Z" fill="#6E97B5"/>
<path d="M21.9898 46.9727C17.8151 46.9727 13.6405 46.9727 9.46588 46.9727C9.16042 46.9727 8.79386 47.0538 8.56986 46.9322C8.2644 46.7701 7.85711 46.4256 7.83675 46.1419C7.81639 45.8582 8.18294 45.4732 8.4884 45.2705C8.71241 45.1287 9.07896 45.1895 9.38442 45.1895C17.7948 45.1895 26.2052 45.1895 34.6155 45.1895C34.7784 45.1895 34.9617 45.1895 35.1246 45.1895C35.7559 45.2097 36.3057 45.3718 36.2854 46.1419C36.265 46.8714 35.7152 46.9525 35.1246 46.9525C30.7463 46.9727 26.3681 46.9727 21.9898 46.9727Z" fill="#6E97B5"/>
<path d="M22.0307 60.3065C17.8357 60.3065 13.6204 60.3065 9.42537 60.3065C9.07918 60.3065 8.69226 60.3673 8.42753 60.2255C8.14243 60.0836 7.85733 59.7189 7.83697 59.4149C7.8166 59.1717 8.1017 58.807 8.34607 58.6651C8.6108 58.5233 8.99772 58.5435 9.34391 58.5435C17.8154 58.5435 26.3072 58.5435 34.7787 58.5435C35.0434 58.5435 35.3896 58.4827 35.5729 58.6043C35.8783 58.807 36.2652 59.1514 36.2449 59.4352C36.2449 59.7189 35.858 60.0633 35.5525 60.2457C35.3285 60.3876 34.9619 60.3065 34.6565 60.3065C30.4411 60.3065 26.2461 60.3065 22.0307 60.3065Z" fill="#6E97B5"/>
<path d="M19.9743 21.1357C16.5939 21.1357 13.1931 21.1357 9.81262 21.1357C9.54788 21.1357 9.26279 21.1357 8.99805 21.1357C8.36677 21.1357 7.79657 21.0141 7.81694 20.2441C7.8373 19.5551 8.3464 19.3727 8.95732 19.393C9.09987 19.393 9.22206 19.393 9.36461 19.393C16.4106 19.393 23.4566 19.393 30.5025 19.393C30.7469 19.393 31.032 19.3119 31.1949 19.4133C31.5411 19.6362 32.0502 19.9199 32.1113 20.2441C32.2335 20.8318 31.7651 21.1357 31.1542 21.1155C30.9505 21.1155 30.7469 21.1155 30.5433 21.1155C27.0203 21.1357 23.4973 21.1357 19.9743 21.1357Z" fill="#6E97B5"/>
<path d="M18.1006 13.8405C15.2292 13.8405 12.3375 13.8405 9.46618 13.8405C9.12 13.8405 8.73308 13.9013 8.46834 13.7594C8.18325 13.6176 7.85742 13.2528 7.85742 12.9894C7.85742 12.7057 8.16288 12.3612 8.42762 12.1788C8.65162 12.037 9.01817 12.0978 9.32364 12.0978C15.1885 12.0978 21.0533 12.0978 26.9182 12.0978C27.1626 12.0978 27.4477 12.0167 27.6106 12.1383C27.9364 12.3612 28.4048 12.6652 28.4048 12.9691C28.4048 13.2528 27.9568 13.5973 27.6513 13.8202C27.468 13.9418 27.1218 13.8608 26.8571 13.8608C23.9247 13.8405 21.0126 13.8405 18.1006 13.8405Z" fill="#6E97B5"/>
</g>
<defs>
<clipPath id="clip0_571_3205">
<rect width="66" height="92" fill="white" transform="translate(0.363281)"/>
</clipPath>
</defs>
</svg>
