<svg width="17" height="18" viewBox="0 0 17 18" fill="none" xmlns="http://www.w3.org/2000/svg">
<path d="M8.42934 0.939453C8.74862 0.939453 9.0405 1.11984 9.18328 1.40541L11.3571 5.7531L16.1371 6.44836C16.4545 6.49454 16.7183 6.71693 16.8174 7.02204C16.9165 7.32716 16.8339 7.66209 16.6042 7.88605L13.1253 11.278L13.9079 16.0604C13.9596 16.3765 13.8277 16.6945 13.5675 16.8813C13.3074 17.0681 12.9638 17.0912 12.6809 16.9411L8.42934 14.6852L4.17778 16.9411C3.89487 17.0912 3.55132 17.0681 3.29114 16.8813C3.03096 16.6945 2.89909 16.3765 2.95081 16.0604L3.73339 11.278L0.254506 7.88605C0.0248019 7.66209 -0.0578563 7.32716 0.041278 7.02204C0.140412 6.71693 0.404151 6.49454 0.721625 6.44836L5.50156 5.7531L7.6754 1.40541C7.81819 1.11984 8.11006 0.939453 8.42934 0.939453ZM8.42934 3.66724L6.81254 6.90085C6.68918 7.14757 6.4529 7.31832 6.17993 7.35803L2.6539 7.87091L5.2246 10.3773C5.42158 10.5694 5.51244 10.8455 5.46802 11.117L4.88903 14.6552L8.03425 12.9863C8.28133 12.8552 8.57735 12.8552 8.82444 12.9863L11.9697 14.6552L11.3907 11.117C11.3462 10.8455 11.4371 10.5694 11.6341 10.3773L14.2048 7.87091L10.6788 7.35803C10.4058 7.31832 10.1695 7.14757 10.0461 6.90085L8.42934 3.66724Z" fill="#FEC00F"/>
<path d="M6.81254 6.90085L8.42934 3.66724L10.0461 6.90085C10.1695 7.14757 10.4058 7.31832 10.6788 7.35803L14.2048 7.87091L11.6341 10.3773C11.4371 10.5694 11.3462 10.8455 11.3907 11.117L11.9697 14.6552L8.82444 12.9863C8.57735 12.8552 8.28133 12.8552 8.03425 12.9863L4.88903 14.6552L5.46802 11.117C5.51244 10.8455 5.42158 10.5694 5.2246 10.3773L2.6539 7.87091L6.17993 7.35803C6.4529 7.31832 6.68918 7.14757 6.81254 6.90085Z" fill="#FEC00F"/>
</svg>
